<svg width="720" height="160" viewBox="0 0 720 160" fill="none" xmlns="http://www.w3.org/2000/svg">
  <path d="M35 104C39 72 62 44 94 36C123 29 152 39 171 59" stroke="#C7D3E1" stroke-width="8" stroke-linecap="round"/>
  <path d="M53 109C58 83 76 63 101 56C121 50 141 56 155 69" stroke="#C7D3E1" stroke-width="5" stroke-linecap="round" opacity="0.65"/>
  <path d="M62 120L70 108" stroke="#C7D3E1" stroke-width="4" stroke-linecap="round"/>
  <path d="M81 100L87 90" stroke="#C7D3E1" stroke-width="4" stroke-linecap="round"/>
  <path d="M104 88L109 77" stroke="#C7D3E1" stroke-width="4" stroke-linecap="round"/>
  <path d="M128 82L132 70" stroke="#C7D3E1" stroke-width="4" stroke-linecap="round"/>
  <path d="M148 84L155 70" stroke="#C7D3E1" stroke-width="6" stroke-linecap="round"/>
  <circle cx="106" cy="104" r="7" fill="#C7D3E1"/>
  <path d="M106 104L144 76" stroke="#C7D3E1" stroke-width="6" stroke-linecap="round"/>
  <path d="M160 80H184" stroke="#C7D3E1" stroke-width="6" stroke-linecap="round"/>
  <text x="206" y="89" fill="#C7D3E1" font-family="'IBM Plex Sans', sans-serif" font-size="46" font-weight="600" letter-spacing="0.1em">DASH</text>
  <text x="392" y="89" fill="#C7D3E1" font-family="'IBM Plex Sans', sans-serif" font-size="30" font-weight="600" letter-spacing="0.16em">WEATHER</text>
</svg>
